<?xml version="1.0" encoding="UTF-8"?>
<!DOCTYPE svg PUBLIC "-//W3C//DTD SVG 1.1//EN" "http://www.w3.org/Graphics/SVG/1.1/DTD/svg11.dtd">
<svg xmlns="http://www.w3.org/2000/svg" version="1.1" width="249px" height="249px" style="shape-rendering:geometricPrecision; text-rendering:geometricPrecision; image-rendering:optimizeQuality; fill-rule:evenodd; clip-rule:evenodd" xmlns:xlink="http://www.w3.org/1999/xlink">
<g><path style="opacity:1" fill="#fefefe" d="M -0.5,-0.5 C 82.5,-0.5 165.5,-0.5 248.5,-0.5C 248.5,82.5 248.5,165.5 248.5,248.5C 165.5,248.5 82.5,248.5 -0.5,248.5C -0.5,165.5 -0.5,82.5 -0.5,-0.5 Z"/></g>
<g><path style="opacity:1" fill="#a4bbd5" d="M 105.5,25.5 C 111.013,24.1843 116.68,24.1843 122.5,25.5C 122.043,26.2975 121.376,26.6309 120.5,26.5C 115.695,25.5128 110.695,25.1795 105.5,25.5 Z"/></g>
<g><path style="opacity:1" fill="#557dae" d="M 105.5,25.5 C 110.695,25.1795 115.695,25.5128 120.5,26.5C 111.752,27.1821 103.085,28.5154 94.5,30.5C 97.2583,29.0335 96.925,28.3668 93.5,28.5C 97.0184,26.0339 101.018,25.0339 105.5,25.5 Z"/></g>
<g><path style="opacity:1" fill="#205494" d="M 93.5,28.5 C 96.925,28.3668 97.2583,29.0335 94.5,30.5C 49.8787,48.0385 28.7121,81.0385 31,129.5C 32.5982,141.459 36.0982,152.792 41.5,163.5C 43.2651,166.709 45.2651,169.709 47.5,172.5C 48.0311,175.767 49.0311,176.1 50.5,173.5C 59.6247,188.616 72.6247,198.949 89.5,204.5C 93.5021,206.61 97.8354,207.943 102.5,208.5C 104.717,209.369 107.05,209.702 109.5,209.5C 113.151,210.165 116.985,210.499 121,210.5C 126.752,210.689 132.252,210.022 137.5,208.5C 143.653,207.337 149.653,205.67 155.5,203.5C 156.873,203.343 158.207,203.51 159.5,204C 158.944,204.383 158.611,204.883 158.5,205.5C 149.734,209.271 140.734,211.938 131.5,213.5C 119.505,214.175 107.672,213.175 96,210.5C 94.4672,210.773 92.9672,211.106 91.5,211.5C 45.0613,192.53 22.5613,157.863 24,107.5C 30.3749,70.0578 51.0416,44.0578 86,29.5C 88.4339,28.6777 90.9339,28.3444 93.5,28.5 Z"/></g>
<g><path style="opacity:1" fill="#5f86b4" d="M 199.5,62.5 C 198.833,62.5 198.5,62.8333 198.5,63.5C 164.539,31.1276 126.205,24.7943 83.5,44.5C 82.8333,44.5 82.1667,44.5 81.5,44.5C 86.3695,40.8972 91.7029,38.0639 97.5,36C 136.86,24.8386 170.86,33.672 199.5,62.5 Z"/></g>
<g><path style="opacity:1" fill="#fbfcfd" d="M 198.5,63.5 C 222.207,92.5574 227.707,124.891 215,160.5C 206.583,180.411 193.083,195.744 174.5,206.5C 164.487,210.893 154.153,214.393 143.5,217C 132.123,217.856 120.79,217.522 109.5,216C 109.167,215.667 108.833,215.333 108.5,215C 116.344,214.829 124.011,214.329 131.5,213.5C 140.734,211.938 149.734,209.271 158.5,205.5C 188.865,190.94 207.031,166.94 213,133.5C 213.667,125.5 213.667,117.5 213,109.5C 213.847,153.535 194.681,184.868 155.5,203.5C 149.653,205.67 143.653,207.337 137.5,208.5C 128.188,209.277 118.854,209.61 109.5,209.5C 107.05,209.702 104.717,209.369 102.5,208.5C 98.4979,206.39 94.1646,205.057 89.5,204.5C 72.6247,198.949 59.6247,188.616 50.5,173.5C 36.8955,149.579 33.7289,124.246 41,97.5C 46.8607,80.306 56.694,65.806 70.5,54C 75.0155,50.9701 79.3488,47.8034 83.5,44.5C 126.205,24.7943 164.539,31.1276 198.5,63.5 Z"/></g>
<g><path style="opacity:1" fill="#245595" d="M 109.5,60.5 C 114.214,60.1734 118.88,60.5067 123.5,61.5C 125.438,66.3157 124.438,70.3157 120.5,73.5C 129.862,78.0286 136.695,85.0286 141,94.5C 141.667,95.8333 141.667,97.1667 141,98.5C 127.596,79.1125 109.763,73.6125 87.5,82C 84.3333,84.5 81.1667,87 78,89.5C 81.4445,81.7286 87.2778,76.2286 95.5,73C 100.151,72.1013 104.818,71.2679 109.5,70.5C 106.848,67.1339 106.848,63.8006 109.5,60.5 Z"/></g>
<g><path style="opacity:1" fill="#cbefbb" d="M 138.5,66.5 C 136.265,66.2053 134.265,66.5386 132.5,67.5C 130.897,67.6882 129.563,67.1882 128.5,66C 132.027,65.1925 135.36,65.3592 138.5,66.5 Z"/></g>
<g><path style="opacity:1" fill="#85db60" d="M 138.5,66.5 C 147.554,69.8805 154.887,75.5472 160.5,83.5C 165.629,78.2054 170.796,78.2054 176,83.5C 178.031,93.1289 174.364,97.1289 165,95.5C 165.114,107.501 161.114,117.835 153,126.5C 164.571,100.377 157.737,80.7101 132.5,67.5C 134.265,66.5386 136.265,66.2053 138.5,66.5 Z"/></g>
<g><path style="opacity:1" fill="#436fa5" d="M 81.5,44.5 C 82.1667,44.5 82.8333,44.5 83.5,44.5C 79.3488,47.8034 75.0155,50.9701 70.5,54C 56.694,65.806 46.8607,80.306 41,97.5C 33.7289,124.246 36.8955,149.579 50.5,173.5C 49.0311,176.1 48.0311,175.767 47.5,172.5C 46.3411,168.849 44.6744,165.515 42.5,162.5C 27.7486,121.479 35.7486,85.646 66.5,55C 71.3798,51.2801 76.3798,47.7801 81.5,44.5 Z"/></g>
<g><path style="opacity:1" fill="#40bdca" d="M 67.5,91.5 C 73.8981,90.9495 78.3981,93.6162 81,99.5C 90.588,92.0665 101.088,90.5665 112.5,95C 93.1451,95.7737 79.9784,105.274 73,123.5C 71.3849,130.814 71.0516,138.147 72,145.5C 68.3607,140.074 66.8607,134.074 67.5,127.5C 66.8215,121.35 68.1549,115.683 71.5,110.5C 61.4675,106.005 60.1342,99.6712 67.5,91.5 Z"/></g>
<g><path style="opacity:1" fill="#104c8f" d="M 130.5,114.5 C 134.298,115.483 138.298,115.817 142.5,115.5C 142.5,119.833 142.5,124.167 142.5,128.5C 138.298,128.183 134.298,128.517 130.5,129.5C 130.5,133.5 130.5,137.5 130.5,141.5C 125.833,141.5 121.167,141.5 116.5,141.5C 116.5,137.5 116.5,133.5 116.5,129.5C 112.5,129.5 108.5,129.5 104.5,129.5C 104.5,124.833 104.5,120.167 104.5,115.5C 108.702,115.817 112.702,115.483 116.5,114.5C 116.5,110.5 116.5,106.5 116.5,102.5C 121.167,102.5 125.833,102.5 130.5,102.5C 130.5,106.5 130.5,110.5 130.5,114.5 Z"/></g>
<g><path style="opacity:1" fill="#42bdcb" d="M 174.5,97.5 C 178.101,103.045 180.101,109.211 180.5,116C 179.689,122.745 178.022,129.245 175.5,135.5C 182.579,135.756 185.412,139.423 184,146.5C 180.96,152.368 176.46,153.868 170.5,151C 168.787,149.075 167.453,146.908 166.5,144.5C 156.733,151.453 146.066,153.286 134.5,150C 155.131,148.034 168.631,137.201 175,117.5C 175.713,110.797 175.546,104.13 174.5,97.5 Z"/></g>
<g><path style="opacity:1" fill="#afc3da" d="M 116.5,114.5 C 112.702,115.483 108.702,115.817 104.5,115.5C 104.5,120.167 104.5,124.833 104.5,129.5C 103.513,124.695 103.179,119.695 103.5,114.5C 107.833,114.5 112.167,114.5 116.5,114.5 Z"/></g>
<g><path style="opacity:1" fill="#7598bf" d="M 130.5,114.5 C 134.833,114.5 139.167,114.5 143.5,114.5C 143.5,119.5 143.5,124.5 143.5,129.5C 139.167,129.5 134.833,129.5 130.5,129.5C 134.298,128.517 138.298,128.183 142.5,128.5C 142.5,124.167 142.5,119.833 142.5,115.5C 138.298,115.817 134.298,115.483 130.5,114.5 Z"/></g>
<g><path style="opacity:1" fill="#83da5e" d="M 113.5,176.5 C 113.265,177.097 112.765,177.43 112,177.5C 108.6,176.044 105.1,175.044 101.5,174.5C 95.2107,171.211 90.2107,166.544 86.5,160.5C 81.9166,165.346 77.0832,165.68 72,161.5C 69.6666,157.01 70.1666,153.01 73.5,149.5C 76.5047,148.276 79.5047,148.276 82.5,149.5C 83.4909,145.555 83.8242,141.555 83.5,137.5C 84.9394,129.218 88.7728,122.218 95,116.5C 84.0693,138.179 87.9026,157.012 106.5,173C 108.886,174.193 111.22,175.36 113.5,176.5 Z"/></g>
<g><path style="opacity:1" fill="#beebaa" d="M 83.5,137.5 C 83.8242,141.555 83.4909,145.555 82.5,149.5C 79.5047,148.276 76.5047,148.276 73.5,149.5C 73.6107,148.883 73.944,148.383 74.5,148C 77.146,147.503 79.8127,147.336 82.5,147.5C 82.1872,143.958 82.5206,140.625 83.5,137.5 Z"/></g>
<g><path style="opacity:1" fill="#416ea5" d="M 199.5,62.5 C 224.336,92.5185 229.836,125.852 216,162.5C 207.159,181.833 193.659,196.833 175.5,207.5C 174.833,207.5 174.5,207.167 174.5,206.5C 193.083,195.744 206.583,180.411 215,160.5C 227.707,124.891 222.207,92.5574 198.5,63.5C 198.5,62.8333 198.833,62.5 199.5,62.5 Z"/></g>
<g><path style="opacity:1" fill="#215494" d="M 124.5,162.5 C 127.084,164.472 130.084,165.472 133.5,165.5C 147.813,167.883 159.979,163.883 170,153.5C 167.763,159.093 163.929,163.593 158.5,167C 152.498,171.002 145.832,172.835 138.5,172.5C 140.131,176.345 139.798,180.012 137.5,183.5C 133.167,184.833 128.833,184.833 124.5,183.5C 121.714,178.981 122.047,174.648 125.5,170.5C 115.76,165.262 109.094,157.429 105.5,147C 108.907,150.407 112.907,154.407 117.5,159C 119.577,160.705 121.91,161.872 124.5,162.5 Z"/></g>
<g><path style="opacity:1" fill="#a2b9d4" d="M 124.5,162.5 C 127.855,162.69 130.855,163.69 133.5,165.5C 130.084,165.472 127.084,164.472 124.5,162.5 Z"/></g>
<g><path style="opacity:1" fill="#a7bdd6" d="M 42.5,162.5 C 44.6744,165.515 46.3411,168.849 47.5,172.5C 45.2651,169.709 43.2651,166.709 41.5,163.5C 42.1667,163.5 42.5,163.167 42.5,162.5 Z"/></g>
<g><path style="opacity:1" fill="#a9e58e" d="M 101.5,174.5 C 105.1,175.044 108.6,176.044 112,177.5C 112.765,177.43 113.265,177.097 113.5,176.5C 114.756,176.461 115.756,176.961 116.5,178C 110.975,178.763 105.975,177.596 101.5,174.5 Z"/></g>
<g><path style="opacity:1" fill="#36649e" d="M 158.5,205.5 C 158.611,204.883 158.944,204.383 159.5,204C 158.207,203.51 156.873,203.343 155.5,203.5C 194.681,184.868 213.847,153.535 213,109.5C 213.667,117.5 213.667,125.5 213,133.5C 207.031,166.94 188.865,190.94 158.5,205.5 Z"/></g>
<g><path style="opacity:1" fill="#a2b9d4" d="M 89.5,204.5 C 94.1646,205.057 98.4979,206.39 102.5,208.5C 97.8354,207.943 93.5021,206.61 89.5,204.5 Z"/></g>
<g><path style="opacity:1" fill="#93aecd" d="M 137.5,208.5 C 132.252,210.022 126.752,210.689 121,210.5C 116.985,210.499 113.151,210.165 109.5,209.5C 118.854,209.61 128.188,209.277 137.5,208.5 Z"/></g>
<g><path style="opacity:1" fill="#678cb7" d="M 174.5,206.5 C 174.5,207.167 174.833,207.5 175.5,207.5C 153.232,219.836 129.565,223.003 104.5,217C 99.8461,215.666 95.5128,213.833 91.5,211.5C 92.9672,211.106 94.4672,210.773 96,210.5C 107.672,213.175 119.505,214.175 131.5,213.5C 124.011,214.329 116.344,214.829 108.5,215C 108.833,215.333 109.167,215.667 109.5,216C 120.79,217.522 132.123,217.856 143.5,217C 154.153,214.393 164.487,210.893 174.5,206.5 Z"/></g>
</svg>
