<?xml version="1.0" encoding="UTF-8"?>
<!DOCTYPE svg PUBLIC "-//W3C//DTD SVG 1.1//EN" "http://www.w3.org/Graphics/SVG/1.1/DTD/svg11.dtd">
<svg xmlns="http://www.w3.org/2000/svg" version="1.1" width="128px" height="128px" style="shape-rendering:geometricPrecision; text-rendering:geometricPrecision; image-rendering:optimizeQuality; fill-rule:evenodd; clip-rule:evenodd" xmlns:xlink="http://www.w3.org/1999/xlink">
<g><path style="opacity:1" fill="#fcfdfd" d="M 51.5,-0.5 C 59.5,-0.5 67.5,-0.5 75.5,-0.5C 103.14,6.47339 120.473,23.8067 127.5,51.5C 127.5,59.5 127.5,67.5 127.5,75.5C 120.411,103.588 102.745,120.922 74.5,127.5C 67.1667,127.5 59.8333,127.5 52.5,127.5C 24.2818,120.949 6.61511,103.615 -0.5,75.5C -0.5,67.5 -0.5,59.5 -0.5,51.5C 6.5,23.8333 23.8333,6.5 51.5,-0.5 Z"/></g>
<g><path style="opacity:1" fill="#075a9f" d="M 28.5,50.5 C 31.1667,50.5 33.8333,50.5 36.5,50.5C 36.5,51.5 36.5,52.5 36.5,53.5C 35.5,53.5 34.5,53.5 33.5,53.5C 33.5,54.5 33.5,55.5 33.5,56.5C 31.8333,56.5 30.1667,56.5 28.5,56.5C 27.1667,54.5 27.1667,52.5 28.5,50.5 Z"/></g>
<g><path style="opacity:1" fill="#6bc2d6" d="M 39.5,53.5 C 40.9465,51.1842 41.6132,48.8508 41.5,46.5C 42.9019,46.8655 43.9019,47.6988 44.5,49C 43.2927,50.3002 42.6261,51.8002 42.5,53.5C 41.5,53.5 40.5,53.5 39.5,53.5 Z"/></g>
<g><path style="opacity:1" fill="#1f92bd" d="M 28.5,50.5 C 27.1667,52.5 27.1667,54.5 28.5,56.5C 26.4727,56.3379 24.4727,56.5045 22.5,57C 21.944,57.3826 21.6107,57.8826 21.5,58.5C 19.6096,58.7035 18.1096,58.0368 17,56.5C 16.5172,57.448 16.3505,58.448 16.5,59.5C 15.2376,56.1329 16.2376,53.2996 19.5,51C 22.4816,50.502 25.4816,50.3354 28.5,50.5 Z"/></g>
<g><path style="opacity:1" fill="#2d65a7" d="M 36.5,53.5 C 37.5,53.5 38.5,53.5 39.5,53.5C 39.5,54.5 39.5,55.5 39.5,56.5C 38.5,56.5 37.5,56.5 36.5,56.5C 36.5,55.5 36.5,54.5 36.5,53.5 Z"/></g>
<g><path style="opacity:1" fill="#10549f" d="M 39.5,56.5 C 40.8333,56.5 42.1667,56.5 43.5,56.5C 43.5,61.8333 43.5,67.1667 43.5,72.5C 42.1667,72.5 40.8333,72.5 39.5,72.5C 39.5,67.1667 39.5,61.8333 39.5,56.5 Z"/></g>
<g><path style="opacity:1" fill="#1b59a6" d="M 49.5,58.5 C 53.2568,58.0708 56.7568,58.7375 60,60.5C 61.049,58.8934 62.549,58.2267 64.5,58.5C 64.6661,64.1764 64.4994,69.8431 64,75.5C 63.6258,76.4162 63.1258,77.2496 62.5,78C 58.2891,79.5339 53.9558,79.8673 49.5,79C 48.3128,77.9805 47.3128,76.8139 46.5,75.5C 47.3333,75.1667 48.1667,74.8333 49,74.5C 52.0139,76.1502 55.1806,76.6502 58.5,76C 59.3366,74.9887 59.67,73.8221 59.5,72.5C 46.24,74.5938 42.9067,69.9272 49.5,58.5 Z"/></g>
<g><path style="opacity:1" fill="#245ca6" d="M 67.5,58.5 C 70.6768,59.6765 73.8435,59.6765 77,58.5C 79.2605,58.4391 81.2605,59.1057 83,60.5C 87.1932,57.7149 91.1932,58.0483 95,61.5C 95.4986,65.1516 95.6653,68.8183 95.5,72.5C 94.1667,72.5 92.8333,72.5 91.5,72.5C 91.6646,69.4816 91.498,66.4816 91,63.5C 89.1353,61.3268 86.9686,60.9934 84.5,62.5C 83.5108,66.1073 83.1774,69.774 83.5,73.5C 81.8333,73.5 80.1667,73.5 78.5,73.5C 78.6653,69.8183 78.4986,66.1516 78,62.5C 76.2739,61.4238 74.4406,61.2571 72.5,62C 71.7476,62.6708 71.4142,63.5041 71.5,64.5C 70.5269,66.9479 70.1936,69.6146 70.5,72.5C 69.5,72.5 68.5,72.5 67.5,72.5C 67.5,67.8333 67.5,63.1667 67.5,58.5 Z"/></g>
<g><path style="opacity:1" fill="#044f93" d="M 21.5,58.5 C 22.3414,60.3792 22.6747,62.3792 22.5,64.5C 19.2876,64.2876 17.2876,62.6209 16.5,59.5C 16.3505,58.448 16.5172,57.448 17,56.5C 18.1096,58.0368 19.6096,58.7035 21.5,58.5 Z"/></g>
<g><path style="opacity:1" fill="#1b58a5" d="M 100.5,58.5 C 104.936,58.2101 109.27,58.7101 113.5,60C 114.464,64.0659 114.797,68.2325 114.5,72.5C 109.489,72.6659 104.489,72.4993 99.5,72C 97.3517,69.9251 97.0183,67.5918 98.5,65C 102.871,64.8275 107.204,64.3275 111.5,63.5C 111.291,62.914 110.957,62.414 110.5,62C 106.476,61.5027 102.476,61.6693 98.5,62.5C 98.5271,60.8007 99.1938,59.4674 100.5,58.5 Z"/></g>
<g><path style="opacity:1" fill="#0879b3" d="M 21.5,58.5 C 23.5,58.5 25.5,58.5 27.5,58.5C 27.8333,60.5 28.1667,62.5 28.5,64.5C 26.5,64.5 24.5,64.5 22.5,64.5C 22.6747,62.3792 22.3414,60.3792 21.5,58.5 Z"/></g>
<g><path style="opacity:1" fill="#25aaca" d="M 27.5,58.5 C 35.4658,58.4439 38.4658,62.1106 36.5,69.5C 36.2542,66.5299 34.5876,65.1966 31.5,65.5C 30.791,64.596 29.791,64.2627 28.5,64.5C 28.1667,62.5 27.8333,60.5 27.5,58.5 Z"/></g>
<g><path style="opacity:1" fill="#f2f5f9" d="M 51.5,62.5 C 54.1667,62.5 56.8333,62.5 59.5,62.5C 60.2652,69.3034 57.4319,71.3034 51,68.5C 50.3224,66.4024 50.4891,64.4024 51.5,62.5 Z"/></g>
<g><path style="opacity:1" fill="#50b1ce" d="M 22.5,66.5 C 22.5,68.5 22.5,70.5 22.5,72.5C 25.1667,72.5 27.8333,72.5 30.5,72.5C 31.1667,72.5 31.8333,72.5 32.5,72.5C 26.69,73.4896 20.69,73.8229 14.5,73.5C 14.695,68.3035 17.3617,65.9701 22.5,66.5 Z"/></g>
<g><path style="opacity:1" fill="#145499" d="M 31.5,65.5 C 34.5876,65.1966 36.2542,66.5299 36.5,69.5C 35.7377,71.2624 34.4044,72.2624 32.5,72.5C 31.8333,72.5 31.1667,72.5 30.5,72.5C 30.5,70.5 30.5,68.5 30.5,66.5C 31.1667,66.5 31.5,66.1667 31.5,65.5 Z"/></g>
<g><path style="opacity:1" fill="#6c88b3" d="M 67.5,58.5 C 67.5,63.1667 67.5,67.8333 67.5,72.5C 68.5,72.5 69.5,72.5 70.5,72.5C 70.1936,69.6146 70.5269,66.9479 71.5,64.5C 71.5,67.5 71.5,70.5 71.5,73.5C 69.8333,73.5 68.1667,73.5 66.5,73.5C 66.1795,68.3054 66.5128,63.3054 67.5,58.5 Z"/></g>
<g><path style="opacity:1" fill="#dee5ee" d="M 102.5,66.5 C 105.167,66.5 107.833,66.5 110.5,66.5C 110.5,67.5 110.5,68.5 110.5,69.5C 107.428,69.8174 104.428,69.4841 101.5,68.5C 101.863,67.8165 102.196,67.1499 102.5,66.5 Z"/></g>
<g><path style="opacity:1" fill="#1481b5" d="M 22.5,66.5 C 25.1667,66.5 27.8333,66.5 30.5,66.5C 30.5,68.5 30.5,70.5 30.5,72.5C 27.8333,72.5 25.1667,72.5 22.5,72.5C 22.5,70.5 22.5,68.5 22.5,66.5 Z"/></g>
<g><path style="opacity:1" fill="#abacac" d="M 111.5,75.5 C 112.5,75.5 113.5,75.5 114.5,75.5C 114.773,77.451 114.107,78.951 112.5,80C 114.932,81.0875 114.598,81.5875 111.5,81.5C 111.5,79.5 111.5,77.5 111.5,75.5 Z"/></g>
</svg>
